HIERARCHY
ROOT hip
{
  OFFSET 0 0 0
  CHANNELS 6 Xposition Yposition Zposition Zrotation Yrotation Xrotation
  JOINT abdomen
  {
    OFFSET 0 20.6881 -0.73152
    CHANNELS 3 Zrotation Xrotation Yrotation
    JOINT chest
    {
      OFFSET 0 11.7043 -0.48768
      CHANNELS 3 Zrotation Xrotation Yrotation
      JOINT neck
      {
        OFFSET 0 22.1894 -2.19456
        CHANNELS 3 Zrotation Xrotation Yrotation
        JOINT head
        {
          OFFSET -0.24384 7.07133 1.2192
          CHANNELS 3 Zrotation Xrotation Yrotation
          JOINT leftEye
          {
            OFFSET 4.14528 8.04674 8.04672
            CHANNELS 3 Zrotation Xrotation Yrotation
            End Site
            {
              OFFSET 1 0 0
            }
          }
          JOINT rightEye
          {
            OFFSET -3.6576 8.04674 8.04672
            CHANNELS 3 Zrotation Xrotation Yrotation
            End Site
            {
              OFFSET 1 0 0
            }
          }
        }
      }
      JOINT rCollar
      {
        OFFSET -2.68224 19.2634 -4.8768
        CHANNELS 3 Zrotation Xrotation Yrotation
        JOINT rShldr
        {
          OFFSET -8.77824 -1.95073 1.46304
          CHANNELS 3 Zrotation Xrotation Yrotation
          JOINT rForeArm
          {
            OFFSET -28.1742 -1.7115 0.48768
            CHANNELS 3 Zrotation Xrotation Yrotation
            JOINT rHand
            {
              OFFSET -22.5879 0.773209 7.07136
              CHANNELS 3 Zrotation Xrotation Yrotation
              JOINT rThumb1
              {
                OFFSET -1.2192 -0.487915 3.41376
                CHANNELS 3 Zrotation Xrotation Yrotation
                JOINT rThumb2
                {
                  OFFSET -3.37035 -0.52449 3.41376
                  CHANNELS 3 Zrotation Xrotation Yrotation
                  End Site
                  {
                    OFFSET -1.78271 -1.18214 1.43049
                  }
                }
              }
              JOINT rIndex1
              {
                OFFSET -7.75947 0.938293 5.60832
                CHANNELS 3 Zrotation Xrotation Yrotation
                JOINT rIndex2
                {
                  OFFSET -2.54057 -0.884171 1.56538
                  CHANNELS 3 Zrotation Xrotation Yrotation
                  End Site
                  {
                    OFFSET -1.62519 -0.234802 1.16502
                  }
                }
              }
              JOINT rMid1
              {
                OFFSET -8.24714 1.18213 3.41376
                CHANNELS 3 Zrotation Xrotation Yrotation
                JOINT rMid2
                {
                  OFFSET -3.10165 -0.590103 1.0647
                  CHANNELS 3 Zrotation Xrotation Yrotation
                  End Site
                  {
                    OFFSET -2.48547 -0.328903 0.83742
                  }
                }
              }
              JOINT rRing1
              {
                OFFSET -8.82822 0.546677 1.51678
                CHANNELS 3 Zrotation Xrotation Yrotation
                JOINT rRing2
                {
                  OFFSET -2.60934 -0.819778 -0.0198488
                  CHANNELS 3 Zrotation Xrotation Yrotation
                  End Site
                  {
                    OFFSET -2.33842 -0.294052 0.168128
                  }
                }
              }
              JOINT rPinky1
              {
                OFFSET -8.27202 -0.0477905 -0.4584
                CHANNELS 3 Zrotation Xrotation Yrotation
                JOINT rPinky2
                {
                  OFFSET -1.82734 -0.647385 -0.700984
                  CHANNELS 3 Zrotation Xrotation Yrotation
                  End Site
                  {
                    OFFSET -1.69225 -0.51767 -0.607171
                  }
                }
              }
            }
          }
        }
      }
      JOINT lCollar
      {
        OFFSET 2.68224 19.2634 -4.8768
        CHANNELS 3 Zrotation Xrotation Yrotation
        JOINT lShldr
        {
          OFFSET 8.77824 -1.95073 1.46304
          CHANNELS 3 Zrotation Xrotation Yrotation
          JOINT lForeArm
          {
            OFFSET 28.1742 -1.7115 0.48768
            CHANNELS 3 Zrotation Xrotation Yrotation
            JOINT lHand
            {
              OFFSET 22.5879 0.773209 7.07136
              CHANNELS 3 Zrotation Xrotation Yrotation
              JOINT lThumb1
              {
                OFFSET 1.2192 -0.487915 3.41376
                CHANNELS 3 Zrotation Xrotation Yrotation
                JOINT lThumb2
                {
                  OFFSET 3.37035 -0.52449 3.41376
                  CHANNELS 3 Zrotation Xrotation Yrotation
                  End Site
                  {
                    OFFSET 1.78271 -1.18214 1.43049
                  }
                }
              }
              JOINT lIndex1
              {
                OFFSET 7.75947 0.938293 5.60832
                CHANNELS 3 Zrotation Xrotation Yrotation
                JOINT lIndex2
                {
                  OFFSET 2.54057 -0.884171 1.56538
                  CHANNELS 3 Zrotation Xrotation Yrotation
                  End Site
                  {
                    OFFSET 1.62519 -0.234802 1.16502
                  }
                }
              }
              JOINT lMid1
              {
                OFFSET 8.24714 1.18213 3.41376
                CHANNELS 3 Zrotation Xrotation Yrotation
                JOINT lMid2
                {
                  OFFSET 3.10165 -0.590103 1.0647
                  CHANNELS 3 Zrotation Xrotation Yrotation
                  End Site
                  {
                    OFFSET 2.48547 -0.328903 0.83742
                  }
                }
              }
              JOINT lRing1
              {
                OFFSET 8.82822 0.546677 1.51678
                CHANNELS 3 Zrotation Xrotation Yrotation
                JOINT lRing2
                {
                  OFFSET 2.60934 -0.819778 -0.0198488
                  CHANNELS 3 Zrotation Xrotation Yrotation
                  End Site
                  {
                    OFFSET 2.33842 -0.294052 0.168128
                  }
                }
              }
              JOINT lPinky1
              {
                OFFSET 8.27202 -0.0477905 -0.4584
                CHANNELS 3 Zrotation Xrotation Yrotation
                JOINT lPinky2
                {
                  OFFSET 1.82734 -0.647385 -0.700984
                  CHANNELS 3 Zrotation Xrotation Yrotation
                  End Site
                  {
                    OFFSET 1.69225 -0.51767 -0.607171
                  }
                }
              }
            }
          }
        }
      }
    }
  }
  JOINT rButtock
  {
    OFFSET -8.77824 4.35084 1.2192
    CHANNELS 3 Zrotation Xrotation Yrotation
    JOINT rThigh
    {
      OFFSET 0 -1.70687 -2.19456
      CHANNELS 3 Zrotation Xrotation Yrotation
      JOINT rShin
      {
        OFFSET 0 -36.8199 0.73152
        CHANNELS 3 Zrotation Xrotation Yrotation
        JOINT rFoot
        {
          OFFSET 0.73152 -45.1104 -5.12064
          CHANNELS 3 Zrotation Xrotation Yrotation
          End Site
          {
            OFFSET -1.1221 -3.69964 12.103
          }
        }
      }
    }
  }
  JOINT lButtock
  {
    OFFSET 8.77824 4.35084 1.2192
    CHANNELS 3 Zrotation Xrotation Yrotation
    JOINT lThigh
    {
      OFFSET 0 -1.70687 -2.19456
      CHANNELS 3 Zrotation Xrotation Yrotation
      JOINT lShin
      {
        OFFSET 0 -36.8199 0.73152
        CHANNELS 3 Zrotation Xrotation Yrotation
        JOINT lFoot
        {
          OFFSET -0.73152 -45.1104 -5.12064
          CHANNELS 3 Zrotation Xrotation Yrotation
          End Site
          {
            OFFSET 1.1221 -3.69964 12.103
          }
        }
      }
    }
  }
}
MOTION
Frames:	4
Frame Time:	0.03333
1.3914302361808362 0.060433286992648036 -0.4454509037639214 29.454587936401367 62.855953216552734 154.54550170898438 46.40974044799805 -38.84608459472656 -142.66346740722656 138.3955841064453 -21.344058990478516 -160.91424560546875 -59.60765838623047 -39.84660339355469 -173.0972137451172 168.80055236816406 -27.252775192260742 110.56649017333984 -7.071662902832031 13.538581848144531 83.15054321289062 -7.506588459014893 -31.417898178100586 80.86759948730469 35.592472076416016 31.394832611083984 136.28253173828125 106.88408660888672 -19.103885650634766 -34.078678131103516 42.87630844116211 36.29951858520508 5.64795446395874 18.127214431762695 -4.192078113555908 -178.07415771484375 110.57293701171875 -43.6916618347168 -41.40744400024414 57.49737548828125 -16.44365692138672 -106.10091400146484 -143.05401611328125 -25.492719650268555 -2.9172563552856445 -20.73626136779785 49.01799011230469 14.414430618286133 -47.34215545654297 -3.2268998622894287 -50.175636291503906 -47.81535720825195 21.306177139282227 48.63530349731445 -2.1474666595458984 32.06520080566406 -132.08267211914062 -179.73170471191406 19.69518280029297 -142.14971923828125 145.5856170654297 -65.1851577758789 -160.79957580566406 113.13651275634766 18.67836570739746 15.74632740020752 -96.04304504394531 36.6243782043457 85.05831146240234 -178.00074768066406 44.22991180419922 -139.3811798095703 35.497764587402344 84.5032730102539 121.07799530029297 -143.815185546875 25.436607360839844 119.76058197021484 42.00530242919922 39.65882873535156 45.84172821044922 156.73854064941406 -17.734264373779297 141.8686981201172 -101.1884536743164 47.21106719970703 111.02204895019531 149.73464965820312 -55.408233642578125 133.06353759765625 155.2905731201172 4.068359375 137.7066192626953 -40.27141571044922 -41.05520248413086 23.997743606567383 -63.98909378051758 -44.58076858520508 119.70339965820312 138.40660095214844 -31.600841522216797 -169.52113342285156 -80.04875946044922 69.80091857910156 66.1000747680664 -14.102218627929688 -37.84345626831055 44.90742111206055 -131.05442810058594 -30.49645233154297 5.089509010314941 -177.5126953125 48.52520751953125 67.82367706298828 -143.7085723876953 35.74558639526367 -52.263763427734375 -101.56006622314453 -31.230789184570312 51.57759475708008 -75.94599914550781 40.771907806396484 60.59550857543945 7.768547534942627 -62.501590728759766 29.04606819152832 -103.6088638305664 56.578697204589844 -40.45396041870117 -12.114892959594727 -22.590402603149414 125.74993896484375
2.8119111878924405 0.06389271110619338 -0.9139013489799499 35.40228271484375 55.42226791381836 158.28509521484375 -125.11734008789062 -36.14813995361328 -143.99090576171875 149.05140686035156 -14.226078987121582 -152.6783447265625 -60.377685546875 -38.307281494140625 -171.6246337890625 133.72434997558594 -36.5034294128418 101.76136016845703 2.4202561378479004 -4.277532577514648 73.23807525634766 0.7421522736549377 -29.229690551757812 76.32744598388672 50.232112884521484 27.318845748901367 137.85345458984375 95.556396484375 -20.35723304748535 -32.27349090576172 37.83863067626953 42.26903533935547 -2.076110601425171 6.8354387283325195 3.811271905899048 -176.29736328125 74.43215942382812 -36.6569938659668 -57.30628204345703 55.28099822998047 -17.989620208740234 -109.24595642089844 -130.7500762939453 -15.19184398651123 -4.707190990447998 -11.770179748535156 45.15576171875 10.288928985595703 -52.3803596496582 -5.33753776550293 -51.490867614746094 -36.56481170654297 26.343280792236328 49.669403076171875 -5.95068883895874 30.420915603637695 -129.20498657226562 176.39923095703125 22.595439910888672 -142.2952423095703 151.36643981933594 -67.10602569580078 -158.42208862304688 116.20841979980469 18.400196075439453 23.066673278808594 -90.5185317993164 48.02889633178711 77.8668441772461 -170.9766082763672 38.373207092285156 -147.16127014160156 63.72969055175781 85.83707427978516 88.04227447509766 -142.91233825683594 24.48625946044922 126.7715835571289 40.7026252746582 39.58525085449219 44.504615783691406 156.22824096679688 -19.655427932739258 142.72792053222656 -99.09033203125 38.053916931152344 103.79515075683594 161.58108520507812 -59.127925872802734 143.2456512451172 -173.17529296875 6.52924108505249 137.15032958984375 -38.171287536621094 -42.045066833496094 29.599102020263672 -69.33446502685547 -42.518959045410156 121.7573471069336 138.03994750976562 -30.039432525634766 -168.04421997070312 -73.87286376953125 72.38546752929688 61.024349212646484 -13.788921356201172 -37.03609848022461 45.03854751586914 -133.1879425048828 -24.054706573486328 1.1072622537612915 175.4599609375 50.79908752441406 76.96563720703125 -154.98434448242188 37.93376159667969 -37.75385284423828 -101.76094055175781 -28.919025421142578 46.74435806274414 -79.13501739501953 43.53179168701172 64.15476989746094 2.9380481243133545 -68.23589324951172 29.84110450744629 -114.45106506347656 54.95582580566406 -32.27415084838867 -5.038802623748779 -21.59889030456543 125.91805267333984
4.232411883119615 0.036951790317231774 -1.410437958949894 39.29133987426758 50.57840347290039 156.63824462890625 -129.14007568359375 -35.476112365722656 -145.9978485107422 137.4488067626953 -20.34634780883789 -161.00840759277344 -61.83089828491211 -37.43811798095703 -171.99139404296875 107.34420776367188 -38.28017807006836 95.6405029296875 6.503482341766357 -17.84690284729004 68.27941131591797 10.143102645874023 -27.864608764648438 73.16223907470703 57.036865234375 25.24802589416504 137.84437561035156 87.2999267578125 -22.445228576660156 -30.542247772216797 41.15044403076172 43.263729095458984 -11.279840469360352 -3.441408634185791 10.297762870788574 -175.27099609375 17.171655654907227 -30.627304077148438 -67.78153991699219 52.64447021484375 -19.45620346069336 -111.64496612548828 -126.50076293945312 -10.870718955993652 -4.902176380157471 -9.251033782958984 43.11082077026367 8.222477912902832 -55.705162048339844 -6.1687774658203125 -52.2938117980957 -30.611581802368164 30.29076385498047 49.22669982910156 -14.205074310302734 30.063175201416016 -126.45941925048828 173.58535766601562 22.985891342163086 -141.4589385986328 159.22555541992188 -68.14073944091797 -152.63377380371094 117.1515884399414 18.236318588256836 26.631179809570312 -87.25241088867188 54.05196762084961 71.29327392578125 -170.87640380859375 33.850433349609375 -151.36654663085938 74.74646759033203 85.87920379638672 74.92678833007812 -142.31227111816406 23.92111587524414 129.22853088378906 38.775550842285156 39.803829193115234 43.259979248046875 155.172607421875 -21.495853424072266 143.03189086914062 -98.70111083984375 31.152524948120117 101.49142456054688 170.72093200683594 -61.94339370727539 149.87954711914062 -162.41445922851562 8.517603874206543 136.46627807617188 -39.08577346801758 -42.35935592651367 31.32851219177246 -77.63661193847656 -41.66981887817383 124.75495910644531 137.3333282470703 -30.827014923095703 -167.5314178466797 -64.35984802246094 72.86572265625 50.8317985534668 -13.128297805786133 -38.56412124633789 44.1496467590332 -135.14219665527344 -17.127729415893555 -2.065830707550049 172.14633178710938 51.937007904052734 82.17520904541016 -154.37384033203125 36.939483642578125 -31.434465408325195 -102.26984405517578 -26.828264236450195 44.098060607910156 -77.97747802734375 44.46289825439453 66.03755187988281 -3.967578172683716 -72.75589752197266 27.909042358398438 -121.84262084960938 55.06584930419922 -26.552743911743164 -0.07349932193756104 -21.448015213012695 124.99011993408203
5.6446219026331566 -0.010941856328654645 -1.945608680186369 41.09040832519531 47.31829071044922 153.62890625 -131.93692016601562 -35.57154083251953 -147.73243713378906 114.73126983642578 -29.204326629638672 177.45782470703125 -63.08124542236328 -36.844207763671875 -172.98501586914062 76.54621124267578 -37.86492156982422 91.76070404052734 9.978066444396973 -27.24618911743164 67.14653015136719 17.0306396484375 -26.583181381225586 70.90853118896484 60.55516815185547 23.873144149780273 136.68170166015625 82.78206634521484 -25.171390533447266 -28.682186126708984 47.28804016113281 41.07279968261719 -19.482925415039062 -9.973979949951172 15.000073432922363 -175.3983154296875 -5.271154403686523 -26.520606994628906 -75.71907806396484 50.07899475097656 -20.21993637084961 -113.09294128417969 -126.61968231201172 -9.52169132232666 -4.586057662963867 -8.802279472351074 42.3166618347168 7.064037322998047 -57.40517044067383 -6.381731033325195 -52.55459976196289 -27.505992889404297 33.676124572753906 47.435760498046875 -21.80412483215332 30.32682991027832 -124.30142974853516 172.05213928222656 22.131282806396484 -140.1813201904297 166.84750366210938 -68.46142578125 -145.9955596923828 116.90034484863281 17.614473342895508 28.448511123657227 -85.21138000488281 56.352149963378906 65.34087371826172 -174.23431396484375 30.250524520874023 -154.07179260253906 68.95460510253906 86.0377426147461 80.27619171142578 -142.5244598388672 23.281253814697266 129.92445373535156 36.84461975097656 40.235321044921875 42.362884521484375 153.73951721191406 -22.661182403564453 143.09779357910156 -97.48612213134766 25.662139892578125 100.46315002441406 177.6761474609375 -64.79893493652344 153.643798828125 -157.6082763671875 10.098847389221191 136.10508728027344 -41.906768798828125 -42.31611251831055 30.6978702545166 -81.71497344970703 -40.87101745605469 126.88887023925781 136.82095336914062 -32.806297302246094 -167.49795532226562 -54.83253860473633 72.14384460449219 39.053977966308594 -13.265095710754395 -41.01700210571289 41.950218200683594 -138.17111206054688 -10.66373348236084 -4.163214683532715 170.4951934814453 53.746883392333984 84.33818054199219 -150.05743408203125 35.43942642211914 -28.48823356628418 -102.46862030029297 -24.888851165771484 42.9986572265625 -75.15933227539062 44.25782012939453 66.55975341796875 -11.907028198242188 -76.80054473876953 25.57762336730957 -126.17503356933594 56.42715072631836 -22.75292205810547 3.724874973297119 -21.665525436401367 124.4981689453125
